<svg xmlns="http://www.w3.org/2000/svg" width="500" height="100" version="1.1" id="logo-svg" filter="url(#dropshadow)">
  <defs>
    <filter xmlns="http://www.w3.org/2000/svg" id="dropshadow" height="130%">
      <feGaussianBlur in="SourceAlpha" stdDeviation="3"/> 
      <feOffset dx="1" dy="1" result="offsetblur"/> 
      <feMerge> 
        <feMergeNode/>
        <feMergeNode in="SourceGraphic"/> 
      </feMerge>
    </filter>
  </defs>
<!-- D -->
<g transform="translate(0.000000,92.000000) scale(0.100000,-0.100000)"
fill="#595866" stroke="none">
<path stroke="white" stroke-width="10" fill="#c46632" d="M245 863 c-36 -6 -46 -19 -35 -49 8 -20 3 -25 -46 -49 -130 -64 -164
-163 -71 -208 43 -22 83 -13 124 25 14 13 27 18 32 12 10 -10 39 -265 43 -379
l3 -70 -45 -5 c-27 -3 -45 -10 -44 -17 4 -47 0 -46 72 -38 102 10 148 23 250
71 128 60 209 139 242 238 27 82 24 128 -14 209 -44 92 -108 142 -222 176 -38
11 -99 23 -136 26 -63 6 -67 8 -70 33 -3 29 -22 34 -83 25z m15 -17 c0 -2 -9
-6 -20 -9 -11 -3 -18 -1 -14 4 5 9 34 13 34 5z m224 -112 c21 -7 44 -10 51 -8
7 3 16 1 20 -5 4 -7 -1 -9 -12 -5 -12 4 -11 1 4 -8 12 -7 31 -26 43 -41 12
-15 25 -26 28 -23 15 15 43 -103 42 -174 -2 -121 -47 -200 -155 -268 -34 -22
-134 -56 -142 -49 -1 2 -5 93 -8 202 -3 110 -8 241 -11 292 -3 51 -3 97 1 102
7 12 82 4 139 -15z m-249 -24 c10 -31 -3 -42 -30 -24 -13 9 -29 13 -35 9 -15
-9 -12 1 6 19 21 22 51 20 59 -4z m-80 -110 c8 -13 -5 -13 -25 0 -13 8 -13 10
2 10 9 0 20 -4 23 -10z m40 -20 c-3 -5 -12 -10 -18 -10 -7 0 -6 4 3 10 19 12
23 12 15 0z"/>
<path d="M364 634 c3 -60 7 -187 8 -282 2 -140 6 -172 17 -170 14 3 17 142 5
358 -3 63 -1 111 5 120 5 7 25 14 44 14 41 0 117 -23 117 -36 0 -5 4 -7 9 -3
5 3 17 -5 25 -17 9 -12 16 -17 16 -11 0 24 -61 81 -107 101 -27 11 -70 23 -97
27 l-48 8 6 -109z"/>
<path d="M202 548 c-27 -17 -43 -20 -89 -15 l-55 6 33 -30 c26 -23 42 -29 80
-29 58 0 82 19 73 58 -4 15 -7 28 -8 29 -1 1 -16 -7 -34 -19z"/>
<path d="M802 464 c-9 -183 -200 -342 -467 -389 -48 -8 -89 -15 -91 -15 -2 0
-4 -9 -4 -19 0 -34 58 -37 183 -9 27 6 75 23 108 39 33 16 63 29 67 29 11 0
89 57 133 98 64 58 80 103 76 212 -1 52 -4 76 -5 54z"/>
</g>
<!-- END D -->

<!-- r -->
<g transform="translate(81.000000,100.000000) scale(0.100000,-0.100000)"
fill="#595866" stroke="none">
<path stroke="white" stroke-width="10" fill="#c46632" d="M279 948 c-1 -13 -2 -36 -3 -53 -1 -24 -8 -32 -31 -39 -165 -49 -204
-76 -212 -150 -5 -41 -2 -50 21 -75 33 -35 75 -45 127 -31 67 18 95 95 43 118
-30 14 -73 6 -75 -14 -1 -8 -2 -19 -3 -26 -2 -19 -23 -20 -41 -2 -10 11 -14
25 -10 38 4 12 7 26 7 33 1 7 5 10 10 7 5 -3 17 1 26 9 21 18 77 37 108 37
l24 0 0 -145 c0 -80 8 -213 17 -297 9 -84 17 -169 17 -188 l1 -35 -77 4 -78 3
0 -31 c0 -17 1 -31 3 -32 1 0 49 -2 107 -5 58 -3 132 -9 164 -14 67 -11 86 -2
86 36 0 22 -4 24 -52 26 -29 0 -60 1 -68 2 -12 1 -17 25 -24 114 -4 62 -6 115
-4 117 2 2 21 -1 41 -7 82 -25 204 49 249 152 31 70 35 157 10 207 -37 73
-134 134 -235 149 l-49 7 7 47 c6 44 5 48 -17 54 -13 3 -38 6 -55 6 -27 0 -33
-4 -34 -22z m154 -159 c52 -14 114 -72 127 -117 13 -47 13 -117 0 -162 -22
-80 -110 -144 -147 -107 -9 8 -13 21 -11 27 3 9 8 8 20 -4 32 -32 71 12 48 55
-10 18 -18 20 -48 16 -21 -3 -44 -8 -53 -12 -14 -5 -16 10 -15 139 1 80 4 146
9 146 4 0 7 7 7 15 0 18 12 19 63 4z"/>
<path d="M376 703 c-3 -42 -6 -104 -6 -139 0 -52 3 -62 15 -58 12 5 15 25 15
94 0 71 3 90 18 103 25 23 54 21 87 -5 l27 -21 -17 32 c-10 20 -32 40 -58 52
-70 31 -73 29 -81 -58z"/>
<path d="M180 764 c-19 -8 -42 -22 -52 -31 -19 -17 -24 -43 -8 -43 6 0 10 7
10 15 0 27 42 46 80 35 19 -6 36 -10 37 -10 2 0 3 11 3 25 0 29 -18 32 -70 9z"/>
<path d="M701 631 c-2 -100 -64 -216 -143 -268 -36 -24 -52 -28 -115 -28 -60
0 -72 -3 -68 -15 2 -8 7 -52 11 -97 7 -87 27 -107 23 -23 -2 27 3 55 9 63 7 8
38 17 71 20 127 11 219 117 228 262 3 38 0 81 -6 95 -9 24 -10 24 -10 -9z"/>
<path d="M215 598 c-24 -15 -43 -18 -95 -15 l-65 5 35 -30 c32 -27 40 -29 92
-26 32 2 60 7 63 10 4 3 5 21 3 40 l-3 35 -30 -19z"/>
<path d="M180 46 c0 -29 30 -36 193 -42 l167 -7 0 31 c0 33 -8 40 -27 21 -9
-9 -39 -9 -120 0 -149 15 -213 15 -213 -3z"/>
</g>
<!-- End r -->

<!-- u -->
<g transform="translate(151.000000,97.000000) scale(0.100000,-0.100000)"
fill="#595866" stroke="none">
<path stroke="white" stroke-width="10" fill="#c46632" d="M105 892 c-43 -29 -85 -100 -85 -143 0 -42 40 -91 91 -113 41 -16 49
-17 74 -5 43 21 66 59 67 109 l0 44 24 -29 c13 -16 45 -78 70 -138 26 -60 65
-138 87 -175 46 -75 45 -81 -17 -165 -46 -63 -83 -93 -122 -103 l-29 -7 28 30
c51 54 30 114 -44 128 -48 9 -99 -13 -133 -57 -60 -79 -15 -178 88 -193 69
-11 121 13 194 88 107 109 122 135 225 383 100 241 104 247 145 240 44 -7 62
1 62 28 0 20 -9 23 -107 39 -99 16 -109 16 -120 1 -15 -20 -6 -44 16 -44 37 0
44 -15 25 -51 -10 -19 -41 -92 -70 -164 -29 -71 -56 -131 -61 -132 -5 -2 -33
65 -62 149 -82 238 -139 308 -250 308 -44 -1 -64 -6 -96 -28z m31 -86 c-36
-34 -47 -70 -23 -80 6 -3 3 -5 -8 -3 -34 4 -32 52 4 87 16 17 37 30 46 30 11
0 6 -10 -19 -34z m64 -70 c0 -8 -4 -18 -10 -21 -5 -3 -10 -4 -10 -1 0 2 -3 11
-6 20 -4 11 -1 16 10 16 9 0 16 -6 16 -14z m65 -496 c-8 -13 -35 -13 -55 0
-11 7 -5 10 23 10 23 0 36 -4 32 -10z m-83 -26 c-4 -23 -6 -24 -20 -11 -16 16
-9 37 12 37 9 0 12 -9 8 -26z"/>
<path d="M845 780 c-3 -5 -27 -10 -53 -10 -43 0 -49 -3 -70 -36 -12 -19 -48
-99 -78 -177 -31 -78 -74 -177 -96 -220 -46 -89 -157 -214 -225 -253 -38 -23
-52 -26 -106 -22 -34 3 -71 9 -82 13 -16 6 -14 1 9 -23 56 -60 162 -59 247 4
63 46 147 148 187 226 32 63 107 240 121 288 13 42 48 104 67 121 11 9 36 22
57 29 32 10 37 16 37 41 0 30 -5 36 -15 19z"/>
<path d="M266 702 c-4 -17 -23 -45 -42 -62 -40 -34 -82 -39 -142 -15 l-37 15
25 -21 c14 -12 24 -25 23 -30 -3 -9 61 -29 95 -29 25 0 82 29 82 42 0 4 10 16
21 27 23 21 22 50 -4 85 -14 19 -15 18 -21 -12z"/>
</g>
<!-- End u -->

<!-- Start j -->
<g transform="translate(236.000000,93.000000) scale(0.100000,-0.100000)"
fill="#595866" stroke="none">
<path stroke="white" stroke-width="10" fill="#c46632" d="M795 870 c-5 -15 0 -26 17 -40 l23 -19 -37 -73 c-41 -78 -135 -202
-182 -239 l-29 -23 6 65 c4 35 10 101 13 146 l7 82 36 8 c27 7 37 15 39 32 6
36 -8 40 -78 25 -36 -7 -90 -14 -121 -14 -38 0 -61 -5 -69 -15 -20 -24 -4 -45
34 -45 41 0 42 -2 45 -144 3 -133 -8 -136 -58 -15 -60 143 -145 209 -268 209
-43 0 -96 -28 -113 -61 -20 -36 -4 -85 36 -108 44 -26 70 -26 112 -1 40 24 45
70 10 94 -20 14 -21 16 -4 16 28 0 93 -75 111 -129 9 -25 25 -69 36 -96 24
-64 24 -67 -7 -96 -35 -33 -131 -151 -178 -221 -27 -40 -47 -59 -67 -63 -25
-6 -58 -40 -47 -50 6 -6 42 -7 131 -6 71 1 89 4 94 17 4 11 -1 22 -12 31 -17
12 -18 17 -6 51 17 47 90 160 125 191 l26 25 40 -39 40 -39 0 -92 0 -93 -47
-3 c-45 -3 -48 -5 -51 -32 l-4 -29 113 7 c138 8 157 12 165 38 10 32 -10 43
-53 30 -22 -7 -41 -8 -46 -3 -6 6 -6 59 -2 125 5 89 11 118 24 130 16 14 20
11 56 -45 90 -142 162 -208 251 -230 101 -26 194 16 194 86 0 56 -62 100 -122
88 -72 -13 -89 -64 -37 -107 38 -32 15 -35 -31 -3 -29 19 -148 178 -149 200
-1 4 -14 26 -31 49 -16 22 -30 45 -30 49 0 5 26 37 58 71 33 35 84 97 115 139
50 68 58 75 84 72 30 -5 60 17 49 36 -4 5 -23 15 -44 22 -20 6 -58 22 -84 35
-58 29 -75 30 -83 4z"/>
<path d="M692 774 c-7 -8 -23 -14 -36 -14 -29 0 -32 -12 -42 -145 -7 -92 -6
-99 9 -86 10 7 17 20 17 29 0 45 23 143 34 139 12 -4 56 42 56 59 0 22 -24 33
-38 18z"/>
<path d="M1000 760 c-8 -6 -26 -8 -40 -5 -22 5 -33 -5 -92 -82 -37 -49 -86
-109 -109 -136 -40 -46 -41 -48 -25 -72 l17 -26 40 43 c22 24 61 72 87 108 67
93 86 112 115 113 14 1 24 4 21 6 -2 2 3 9 12 15 9 7 12 18 8 29 -7 19 -13 21
-34 7z"/>
<path d="M256 685 c4 -8 -7 -28 -26 -46 -30 -30 -34 -31 -93 -26 l-62 5 33
-29 c26 -23 41 -29 80 -29 40 0 53 5 77 30 15 16 31 27 36 25 11 -7 -2 37 -19
63 -16 25 -34 30 -26 7z"/>
<path d="M603 388 c-12 -15 -26 -228 -15 -228 19 1 28 19 31 65 3 60 17 89 38
81 10 -4 7 8 -12 41 -16 27 -29 49 -30 51 -1 1 -7 -3 -12 -10z"/>
<path d="M369 328 c-38 -49 -104 -166 -97 -173 2 -2 14 -6 28 -10 21 -5 27 -1
37 22 15 35 29 57 72 111 25 33 36 40 42 30 5 -7 9 -8 9 -3 0 6 4 4 9 -4 5 -7
11 -9 14 -4 7 11 -49 83 -63 83 -5 0 -28 -23 -51 -52z"/>
<path d="M1110 187 c0 -22 -53 -65 -94 -76 -53 -14 -124 2 -203 45 -35 18 -63
31 -63 28 0 -11 66 -67 95 -80 17 -7 26 -14 20 -14 -5 -1 8 -8 30 -17 55 -23
163 -23 198 0 24 15 27 24 27 72 0 30 -2 55 -5 55 -3 0 -5 -6 -5 -13z"/>
<path d="M298 99 c-18 -30 -18 -31 -80 -24 -68 7 -118 -5 -118 -29 0 -19 21
-25 100 -26 116 -3 122 0 125 64 1 25 -1 46 -4 46 -3 0 -14 -14 -23 -31z"/>
<path d="M678 90 c-9 -6 -67 -14 -128 -19 -61 -5 -114 -12 -118 -16 -3 -3 -1
-14 5 -23 9 -14 26 -17 113 -14 118 3 154 15 158 55 4 29 -3 32 -30 17z"/>
</g>
<!-- End j -->

<!-- b -->
<g transform="translate(340.000000,86.000000) scale(0.100000,-0.100000)"
fill="#595866" stroke="none">
<path stroke="white" stroke-width="10" fill="#c46632" d="M385 843 c-16 -2 -63 -10 -104 -18 -40 -8 -113 -15 -162 -15 l-89 0
0 -30 c0 -27 3 -30 34 -30 l33 0 11 -67 c15 -88 40 -355 44 -458 3 -74 2 -80
-17 -80 -30 -1 -45 -14 -45 -40 0 -21 5 -24 64 -30 158 -17 335 46 381 136 51
98 -22 179 -193 215 -77 16 -92 13 -92 -15 0 -14 13 -21 59 -31 86 -18 118
-40 126 -87 11 -67 -19 -113 -92 -139 -21 -7 -56 -13 -78 -14 l-40 0 3 302 c2
167 6 305 9 308 8 8 165 16 198 10 24 -5 31 -11 33 -35 l4 -30 -22 28 c-30 37
-64 35 -106 -7 -48 -48 -43 -91 16 -121 41 -21 70 -19 113 10 68 47 99 152 59
201 -33 41 -62 48 -147 37z"/>
<path d="M567 729 c-24 -112 -139 -191 -218 -149 -13 8 -19 7 -19 0 0 -6 7
-13 15 -16 8 -4 13 -10 10 -14 -10 -16 70 -39 107 -31 46 11 60 20 92 58 25
29 27 38 24 110 -3 65 -4 72 -11 42z"/>
<path d="M271 741 c-23 -6 -23 -9 -26 -149 -1 -78 -1 -142 0 -142 2 0 10 3 19
6 13 5 16 23 16 94 0 99 9 132 48 173 l26 27 -30 -1 c-16 -1 -40 -4 -53 -8z"/>
<path d="M60 730 c-11 -7 -12 -14 -4 -27 17 -27 34 -27 34 1 0 29 -10 38 -30
26z"/>
<path d="M240 265 c0 -63 2 -115 4 -115 14 0 35 13 31 19 -2 4 -1 37 3 72 l7
64 40 1 c22 1 52 -5 68 -13 23 -12 27 -12 27 2 0 22 -35 53 -67 61 -16 3 -44
10 -63 15 -19 5 -38 9 -42 9 -5 0 -8 -52 -8 -115z"/>
<path d="M568 264 c-23 -124 -170 -203 -380 -204 -72 0 -76 -1 -71 -21 8 -28
42 -39 121 -39 132 0 278 53 321 115 19 28 21 43 19 111 -3 69 -4 74 -10 38z"/>
</g>
<!-- End b -->

<!-- a -->
<g transform="translate(400.000000,92.000000) scale(0.100000,-0.100000)"
fill="#595866" stroke="none">
<path stroke="white" stroke-width="10" fill="#c46632" d="M511 884 c-70 -19 -127 -58 -173 -119 -38 -50 -52 -95 -63 -197 l-6
-57 -30 11 c-31 11 -59 43 -59 68 0 9 14 30 30 49 48 51 22 68 -50 31 -52 -26
-72 -58 -64 -98 9 -45 46 -77 119 -104 l64 -23 3 -60 c6 -129 -30 -189 -110
-182 -49 5 -82 30 -81 61 0 19 1 18 10 -4 10 -23 11 -24 21 -6 8 14 7 21 -3
27 -11 7 -10 9 4 9 15 0 17 -5 12 -29 -5 -23 -2 -29 14 -34 60 -15 89 89 37
132 -23 19 -93 8 -122 -20 -13 -12 -29 -40 -35 -62 -10 -37 -8 -43 23 -88 58
-85 140 -96 212 -29 16 16 33 27 36 24 10 -11 -60 -61 -101 -73 -50 -15 -87
-8 -122 25 -17 15 -27 20 -27 11 0 -15 65 -79 99 -97 37 -19 103 -4 153 35 54
42 82 91 99 170 17 83 29 94 89 88 47 -4 50 -3 56 22 4 15 3 30 -2 35 -5 5
-45 10 -89 11 l-79 2 -12 -75 c-11 -70 -41 -155 -51 -144 -2 2 3 18 11 35 9
17 22 68 29 113 10 67 16 83 30 82 9 0 52 -1 96 -2 l78 -2 7 -77 c3 -43 9
-101 12 -128 6 -49 5 -51 -21 -53 -15 -1 -31 -4 -36 -8 -12 -7 -12 -61 0 -68
8 -5 228 48 238 57 2 3 1 17 -3 32 -6 25 -9 26 -43 20 -20 -4 -40 -7 -46 -8
-10 -2 -22 81 -24 169 -1 38 4 57 19 74 24 27 26 75 5 84 -20 7 -19 48 6 191
22 127 30 145 60 145 14 0 19 7 19 25 0 25 0 25 -92 24 -51 0 -117 -7 -147
-15z m62 -62 c-5 -22 -21 -277 -20 -302 2 -25 1 -25 -85 -28 -102 -3 -98 -10
-73 120 17 91 37 143 68 177 38 41 116 65 110 33z"/>
<path d="M515 810 c-66 -33 -98 -102 -120 -262 -6 -44 -4 -48 14 -48 24 0 29
7 36 56 10 67 37 128 77 171 26 30 38 52 38 73 0 16 -1 30 -2 30 -2 0 -21 -9
-43 -20z"/>
<path d="M755 841 c-3 -6 -15 -11 -25 -11 -10 0 -21 -4 -24 -8 -2 -4 -15 -70
-27 -146 -22 -130 -22 -139 -6 -151 23 -17 23 -82 -1 -103 -16 -15 -18 -30
-14 -119 3 -76 7 -103 17 -103 17 0 21 14 24 75 1 28 7 68 12 89 6 22 7 63 4
95 -13 97 -12 109 7 197 12 58 27 97 43 116 14 16 23 39 21 51 -3 24 -21 34
-31 18z"/>
<path d="M207 614 c-21 -29 -17 -48 13 -64 17 -9 22 -7 30 15 26 68 -5 102
-43 49z"/>
<path d="M130 471 c23 -33 72 -66 113 -76 24 -6 27 -4 27 17 0 20 -9 27 -52
43 -29 10 -57 21 -63 25 -5 4 -18 10 -28 13 -17 6 -16 4 3 -22z"/>
<path d="M230 301 c0 -13 -9 -36 -21 -53 -25 -35 -19 -47 14 -25 29 19 39 58
20 83 -12 17 -13 16 -13 -5z"/>
<path d="M760 130 c-8 -4 -59 -18 -112 -30 -110 -25 -127 -36 -100 -69 l17
-22 90 21 c130 31 135 33 135 75 0 36 -4 40 -30 25z"/>
</g>
<!-- End a -->
</svg>